<svg width="68" height="67" fill="none" xmlns="http://www.w3.org/2000/svg"><path d="m37.68 8.426-19.53 6.012c-7.118 2.19-10.153 7.707-8.392 15.253l4.825 20.688c1.76 7.546 6.79 10.58 13.907 8.39l19.53-6.011c7.118-2.191 10.134-7.702 8.374-15.248l-4.826-20.688c-1.76-7.546-6.77-10.586-13.888-8.396z" fill="url(#a)"/><g opacity=".5" filter="url(#b)"><path d="m36.282 17.68-12.9 3.97c-4.702 1.447-6.739 4.954-5.632 9.698l3.034 13.005c1.106 4.744 4.397 6.612 9.098 5.165l12.9-3.97c4.702-1.447 6.726-4.951 5.62-9.695l-3.034-13.005c-1.107-4.744-4.385-6.616-9.086-5.169z" fill="#E31313"/></g><g filter="url(#c)"><path d="M50.563 19.297H32.106c-7.217 0-12.071 5.557-12.071 13.824v19.078c0 8.243 4.854 13.8 12.07 13.8h18.458c7.218 0 12.05-5.557 12.05-13.8V33.121c0-8.267-4.832-13.824-12.05-13.824z" fill="#F03E3D"/><path d="M50.563 18.797H32.106c-3.746 0-6.904 1.446-9.119 3.983-2.21 2.53-3.452 6.112-3.452 10.34V52.2c0 4.218 1.242 7.793 3.452 10.32 2.216 2.535 5.373 3.98 9.119 3.98h18.457c3.746 0 6.898-1.446 9.108-3.98 2.205-2.528 3.442-6.103 3.442-10.32V33.121c0-4.229-1.236-7.81-3.441-10.34-2.21-2.538-5.363-3.984-9.109-3.984z" stroke="url(#d)" stroke-linecap="round" stroke-linejoin="round"/></g><g filter="url(#e)"><path d="M64.872 15.866c-1.728 0-3.128 1.536-3.128 3.431s1.4 3.431 3.128 3.431c1.728 0 3.128-1.536 3.128-3.431 0-.91-.33-1.783-.916-2.426-.587-.644-1.383-1.005-2.212-1.005z" fill="url(#f)"/></g><g filter="url(#g)"><path d="m52.462 38.513-6.084 8.611a1.55 1.55 0 0 1-1.063.677 1.478 1.478 0 0 1-1.183-.369L38.29 42.41l-5.26 7.463c-.381.663-1.123.962-1.806.725-.682-.236-1.133-.947-1.096-1.73a1.785 1.785 0 0 1 .337-1.066l6.29-8.898a1.552 1.552 0 0 1 1.05-.678c.42-.061.844.064 1.178.35l5.84 5.043 5.13-7.238c.246-.373.62-.62 1.037-.686.416-.066.839.056 1.172.338.687.59.82 1.672.3 2.44v.04z" fill="url(#h)"/><path d="m46.215 47.01-.002.002a1.35 1.35 0 0 1-.926.59 1.278 1.278 0 0 1-1.023-.32l-.002-.002-5.84-5.023-.168-.144-.127.18-5.26 7.464-.005.007-.005.008c-.337.588-.982.839-1.566.636-.59-.204-.995-.827-.962-1.531v-.011c-.003-.346.103-.68.298-.947l.002-.002 6.29-8.9.002-.002c.224-.328.555-.539.915-.592.36-.053.726.054 1.017.303l5.84 5.044.167.144.127-.18 5.13-7.238.004-.005c.217-.33.544-.543.9-.6.357-.056.722.048 1.012.293.607.521.73 1.49.264 2.176l-.035.05v.04l-6.047 8.56z" stroke="url(#i)" stroke-width=".4"/></g><defs><linearGradient id="a" x1="36.846" y1="35.621" x2="2.468" y2="63.315" gradientUnits="userSpaceOnUse"><stop stop-color="#F03E3D"/><stop offset="1" stop-color="#870404"/></linearGradient><linearGradient id="d" x1="26.813" y1="24.738" x2="57.065" y2="58.897" gradientUnits="userSpaceOnUse"><stop stop-color="#fff" stop-opacity=".25"/><stop offset="1" stop-color="#fff" stop-opacity="0"/></linearGradient><linearGradient id="f" x1="65.332" y1="19.756" x2="59.652" y2="22.275" gradientUnits="userSpaceOnUse"><stop stop-color="#FF759F" stop-opacity="0"/><stop offset="1" stop-color="#FF196E"/></linearGradient><linearGradient id="h" x1="51.174" y1="38.385" x2="25.974" y2="39.626" gradientUnits="userSpaceOnUse"><stop stop-color="#fff"/><stop offset="1" stop-color="#fff" stop-opacity=".2"/></linearGradient><linearGradient id="i" x1="33.733" y1="37.424" x2="41.873" y2="52.65" gradientUnits="userSpaceOnUse"><stop stop-color="#fff" stop-opacity=".25"/><stop offset="1" stop-color="#fff" stop-opacity="0"/></linearGradient><filter id="b" x=".455" y=".201" width="65.243" height="66.795" filterUnits="userSpaceOnUse" color-interpolation-filters="sRGB"><feFlood flood-opacity="0" result="BackgroundImageFix"/><feBlend in="SourceGraphic" in2="BackgroundImageFix" result="shape"/><feGaussianBlur stdDeviation="8.5" result="effect1_foregroundBlur_42_44"/></filter><filter id="c" x="-4.965" y="-5.703" width="92.578" height="96.703" filterUnits="userSpaceOnUse" color-interpolation-filters="sRGB"><feFlood flood-opacity="0" result="BackgroundImageFix"/><feGaussianBlur in="BackgroundImageFix" stdDeviation="12"/><feComposite in2="SourceAlpha" operator="in" result="effect1_backgroundBlur_42_44"/><feBlend in="SourceGraphic" in2="effect1_backgroundBlur_42_44" result="shape"/></filter><filter id="e" x="46.744" y=".866" width="36.256" height="36.862" filterUnits="userSpaceOnUse" color-interpolation-filters="sRGB"><feFlood flood-opacity="0" result="BackgroundImageFix"/><feGaussianBlur in="BackgroundImageFix" stdDeviation="7.5"/><feComposite in2="SourceAlpha" operator="in" result="effect1_backgroundBlur_42_44"/><feBlend in="SourceGraphic" in2="effect1_backgroundBlur_42_44" result="shape"/></filter><filter id="g" x="15.127" y="20.677" width="52.653" height="45.001" filterUnits="userSpaceOnUse" color-interpolation-filters="sRGB"><feFlood flood-opacity="0" result="BackgroundImageFix"/><feGaussianBlur in="BackgroundImageFix" stdDeviation="7.5"/><feComposite in2="SourceAlpha" operator="in" result="effect1_backgroundBlur_42_44"/><feColorMatrix in="SourceAlpha" values="0 0 0 0 0 0 0 0 0 0 0 0 0 0 0 0 0 0 127 0" result="hardAlpha"/><feOffset dx="5" dy="5"/><feGaussianBlur stdDeviation="5"/><feColorMatrix values="0 0 0 0 1 0 0 0 0 0.321569 0 0 0 0 0.54902 0 0 0 0.5 0"/><feBlend in2="effect1_backgroundBlur_42_44" result="effect2_dropShadow_42_44"/><feBlend in="SourceGraphic" in2="effect2_dropShadow_42_44" result="shape"/></filter></defs></svg>