<svg xmlns="http://www.w3.org/2000/svg" width="40" height="37" fill="none">
  <path fill="#02BC6B" fill-rule="evenodd" d="M3.133 34.459A3.142 3.142 0 0 1 0 31.326V20.372h7.886v-.012h4.74c1.222-.032 2.256-1.097 2.256-2.35a2.367 2.367 0 0 0-2.35-2.35H6.266v.002H0v-3.135a3.142 3.142 0 0 1 3.133-3.133h9.4c2.38 0 4.417.846 6.077 2.538 1.692 1.66 2.538 3.697 2.538 6.078 0 2.35-.814 4.386-2.475 6.047-1.66 1.66-3.666 2.538-6.015 2.569H6.266v4.7a3.142 3.142 0 0 1-3.133 3.133Z" clip-rule="evenodd"/>
  <path fill="#02897A" fill-rule="evenodd" d="M25.098 5.758c3.461 3.362 5.205 7.55 5.205 12.31 0 4.68-1.671 8.863-5.079 12.235l-4.839-4.552c2.12-2.098 3.16-4.623 3.16-7.684 0-3.084-1.072-5.605-3.242-7.713l4.795-4.596Z" clip-rule="evenodd"/>
  <path fill="#035B81" fill-rule="evenodd" d="M32.506 0C37.49 4.978 40 11.15 40 18.234c0 6.973-2.407 13.141-7.311 18.13l-4.67-4.563c3.653-3.716 5.443-8.223 5.443-13.567 0-5.398-1.85-9.901-5.583-13.628L32.506 0Z" clip-rule="evenodd"/>
  <path fill="#028E37" fill-rule="evenodd" d="M0 26.652h6.266v4.674a3.142 3.142 0 0 1-3.133 3.133A3.142 3.142 0 0 1 0 31.326v-4.674Z" clip-rule="evenodd"/>
</svg>
