<svg xmlns="http://www.w3.org/2000/svg" aria-hidden="true" style="position:absolute;width:0;height:0;overflow:hidden">
  <defs>
    <symbol id="icon-facebook" viewBox="0 0 32 32">
      <path fill="none" stroke="#02897a" stroke-linecap="round" stroke-linejoin="round" stroke-width="2.667" d="M24 2.667h-4a6.67 6.67 0 0 0-6.667 6.667v4h-4v5.333h4v10.667h5.333V18.667h4l1.333-5.333h-5.333v-4A1.334 1.334 0 0 1 20 8h4V2.667z" style="stroke:var(--color1, #02897a)"/>
    </symbol>
    <symbol id="icon-twitter" viewBox="0 0 32 32">
      <path fill="none" stroke="#02897a" stroke-linecap="round" stroke-linejoin="round" stroke-width="2.667" d="M30.667 4.013a14.542 14.542 0 0 1-4.187 2.04 5.975 5.975 0 0 0-6.637-1.661A5.979 5.979 0 0 0 16 10.053v1.333a14.211 14.211 0 0 1-12-6.04s-5.333 12 6.667 17.333a15.519 15.519 0 0 1-9.333 2.667c12 6.667 26.667 0 26.667-15.333a5.966 5.966 0 0 0-.107-1.107 10.288 10.288 0 0 0 2.773-4.893v0z" style="stroke:var(--color1, #02897a)"/>
    </symbol>
    <symbol id="icon-instagram" viewBox="0 0 32 32">
      <path fill="none" stroke="#02897a" stroke-linecap="round" stroke-linejoin="round" stroke-width="2.667" d="M22.667 2.667H9.334a6.667 6.667 0 0 0-6.667 6.667v13.333a6.667 6.667 0 0 0 6.667 6.667h13.333a6.667 6.667 0 0 0 6.667-6.667V9.334a6.667 6.667 0 0 0-6.667-6.667z" style="stroke:var(--color1, #02897a)"/>
      <path fill="none" stroke="#02897a" stroke-linecap="round" stroke-linejoin="round" stroke-width="2.667" d="M21.333 15.16a5.338 5.338 0 0 1-6.123 6.049 5.334 5.334 0 1 1 6.124-6.048zM23.333 8.667h.013" style="stroke:var(--color1, #02897a)"/>
    </symbol>
    <symbol id="icon-logo" viewBox="0 0 32 32">
      <path fill="#02bc6b" d="M2.506 28.891C1.127 28.891 0 27.774 0 26.41v-8.675h6.309v-.01h3.792c.978-.025 1.805-.868 1.805-1.861 0-1.017-.852-1.861-1.88-1.861L0 14.005v-2.483c0-1.365 1.128-2.481 2.506-2.481h7.519c1.905 0 3.534.67 4.862 2.01 1.354 1.315 2.03 2.928 2.03 4.814 0 1.861-.652 3.474-1.98 4.789s-2.933 2.01-4.812 2.035H5.012v3.722c0 1.365-1.128 2.481-2.506 2.481z" style="fill:var(--color2, #02bc6b)"/>
      <path fill="#02897a" d="M20.078 6.16c2.769 2.663 4.164 5.979 4.164 9.749 0 3.707-1.337 7.02-4.063 9.691l-3.871-3.606c1.696-1.661 2.528-3.661 2.528-6.085 0-2.443-.857-4.439-2.594-6.109l3.836-3.64z" style="fill:var(--color1, #02897a)"/>
      <path fill="#035b81" d="M26.004 1.6C29.992 5.542 32 10.431 32 16.041c0 5.523-1.926 10.408-5.849 14.359l-3.736-3.614c2.922-2.943 4.354-6.512 4.354-10.745 0-4.275-1.48-7.842-4.466-10.793L26.004 1.6z" style="fill:var(--color3, #035b81)"/>
      <path fill="#028e37" d="M0 22.709h5.013v3.702c0 1.365-1.128 2.481-2.506 2.481S.001 27.775.001 26.411v-3.702z" style="fill:var(--color4, #028e37)"/>
    </symbol>
    <symbol id="icon-mobile-screen" viewBox="0 0 21 32">
      <path fill="#02897a" style="fill: var(--color1, #02897a)" d="M16.935 2.286h-13.299c-1.377 0-2.494 1.152-2.494 2.571v22.286c0 1.42 1.117 2.571 2.494 2.571h13.299c1.377 0 2.494-1.152 2.494-2.571v-22.286c0-1.42-1.117-2.571-2.494-2.571zM12.779 26.238c0 0.52-0.374 0.905-0.831 0.905h-3.371c-0.41 0-0.784-0.386-0.784-0.857s0.374-0.857 0.831-0.857h3.325c0.457 0 0.831 0.386 0.831 0.809zM16.104 22.857h-11.636v-17.143h11.636v17.143z"></path>
    </symbol>
  </defs>
</svg>
